<svg data-v-fde0c5aa="" xmlns="http://www.w3.org/2000/svg" viewBox="0 0 300 300" class="iconAboveSlogan"><!----><defs data-v-fde0c5aa=""><!----></defs><rect data-v-fde0c5aa="" fill="#250D59" x="0" y="0" width="300px" height="300px" class="logo-background-square"></rect><defs data-v-fde0c5aa=""><!----></defs><g data-v-fde0c5aa="" id="db630355-3979-470f-b5f7-015e40ef0481" fill="#DAA5DE" transform="matrix(2.2292721094304953,0,0,2.2292721094304953,18.528680349310914,150.27889436118716)"><path d="M9.32 8.41L9.32 8.97L8.47 9.06Q8.46 9.69 8.45 10.32Q8.44 10.96 8.44 11.62L8.44 11.62L8.44 12.24Q7.71 12.61 6.98 12.84Q6.24 13.06 5.36 13.06L5.36 13.06Q4.31 13.06 3.44 12.69Q2.58 12.32 1.96 11.67Q1.34 11.02 1.00 10.12Q0.66 9.23 0.66 8.18L0.66 8.18Q0.66 7.13 1.00 6.22Q1.34 5.32 1.97 4.67Q2.60 4.02 3.48 3.65Q4.35 3.28 5.43 3.28L5.43 3.28Q6.29 3.28 6.96 3.44Q7.63 3.60 8.25 3.95L8.25 3.95L8.30 5.98L7.42 5.98L7.14 4.35Q6.76 4.16 6.37 4.07Q5.98 3.99 5.54 3.99L5.54 3.99Q4.82 3.99 4.20 4.27Q3.58 4.55 3.13 5.08Q2.67 5.61 2.42 6.39Q2.17 7.17 2.17 8.18L2.17 8.18Q2.17 10.18 3.09 11.26Q4.02 12.35 5.64 12.35L5.64 12.35Q6.43 12.35 7.13 12.07L7.13 12.07L7.13 11.62Q7.13 10.99 7.12 10.36Q7.11 9.73 7.10 9.10L7.10 9.10L5.66 8.97L5.66 8.41L9.32 8.41ZM11.48 8.86L14.03 8.86Q14.53 8.86 14.70 8.65Q14.87 8.44 14.87 8.13L14.87 8.13Q14.87 7.84 14.75 7.57Q14.63 7.29 14.43 7.08Q14.22 6.87 13.95 6.75Q13.68 6.62 13.36 6.62L13.36 6.62Q13.06 6.62 12.75 6.74Q12.43 6.86 12.17 7.13Q11.91 7.41 11.73 7.83Q11.54 8.26 11.48 8.86L11.48 8.86ZM15.93 9.46L11.45 9.46Q11.48 10.77 12.10 11.47Q12.71 12.17 13.72 12.17L13.72 12.17Q14.39 12.17 14.84 11.89Q15.29 11.61 15.67 11.16L15.67 11.16L16.00 11.42Q15.64 12.18 14.96 12.62Q14.28 13.06 13.31 13.06L13.31 13.06Q12.60 13.06 12.03 12.82Q11.45 12.59 11.05 12.13Q10.64 11.68 10.42 11.03Q10.19 10.39 10.19 9.59L10.19 9.59Q10.19 8.79 10.44 8.13Q10.70 7.46 11.14 6.99Q11.58 6.51 12.17 6.24Q12.75 5.98 13.41 5.98L13.41 5.98Q13.96 5.98 14.44 6.16Q14.92 6.34 15.27 6.69Q15.62 7.04 15.83 7.55Q16.03 8.05 16.03 8.68L16.03 8.68Q16.03 8.92 16.00 9.11Q15.97 9.31 15.93 9.46L15.93 9.46ZM23.77 12.15L24.75 12.35L24.75 12.85L21.50 12.85L21.50 12.35L22.54 12.15Q22.55 11.63 22.56 11.02Q22.57 10.40 22.57 9.91L22.57 9.91L22.57 8.68Q22.57 7.73 22.30 7.35Q22.04 6.97 21.42 6.97L21.42 6.97Q20.93 6.97 20.48 7.18Q20.02 7.39 19.49 7.85L19.49 7.85L19.49 9.91Q19.49 10.37 19.50 11.00Q19.50 11.62 19.52 12.15L19.52 12.15L20.50 12.35L20.50 12.85L17.25 12.85L17.25 12.35L18.28 12.15Q18.30 11.62 18.30 11.00Q18.31 10.39 18.31 9.91L18.31 9.91L18.31 9.20Q18.31 8.62 18.30 8.25Q18.28 7.87 18.27 7.45L18.27 7.45L17.16 7.32L17.16 6.83L19.11 5.98L19.32 6.12L19.43 7.25Q19.95 6.68 20.61 6.33Q21.28 5.98 21.95 5.98L21.95 5.98Q22.86 5.98 23.30 6.58Q23.74 7.18 23.74 8.57L23.74 8.57L23.74 9.91Q23.74 10.40 23.75 11.01Q23.76 11.62 23.77 12.15L23.77 12.15ZM32.58 10.36L33.46 10.36L33.40 12.39Q32.73 12.75 32.02 12.91Q31.32 13.06 30.58 13.06L30.58 13.06Q29.51 13.06 28.64 12.71Q27.76 12.35 27.14 11.70Q26.52 11.05 26.17 10.15Q25.83 9.25 25.83 8.18L25.83 8.18Q25.83 7.11 26.19 6.21Q26.54 5.31 27.17 4.65Q27.80 4.00 28.67 3.64Q29.54 3.28 30.58 3.28L30.58 3.28Q31.15 3.28 31.85 3.41Q32.55 3.54 33.26 3.95L33.26 3.95L33.32 5.99L32.44 5.99L32.16 4.33Q31.79 4.14 31.44 4.07Q31.09 3.99 30.73 3.99L30.73 3.99Q30.03 3.99 29.41 4.26Q28.80 4.54 28.34 5.06Q27.87 5.59 27.61 6.37Q27.34 7.15 27.34 8.18L27.34 8.18Q27.34 9.20 27.59 9.97Q27.83 10.75 28.27 11.28Q28.70 11.82 29.31 12.09Q29.92 12.36 30.63 12.36L30.63 12.36Q31.04 12.36 31.46 12.27Q31.88 12.18 32.30 11.98L32.30 11.98L32.58 10.36ZM37.86 6.62L37.86 6.62Q36.93 6.62 36.44 7.37Q35.95 8.12 35.95 9.55L35.95 9.55Q35.95 10.96 36.44 11.70Q36.93 12.43 37.86 12.43L37.86 12.43Q38.77 12.43 39.26 11.70Q39.75 10.96 39.75 9.55L39.75 9.55Q39.75 8.12 39.26 7.37Q38.77 6.62 37.86 6.62ZM37.86 5.98L37.86 5.98Q38.46 5.98 39.04 6.21Q39.62 6.44 40.07 6.90Q40.52 7.35 40.80 8.02Q41.08 8.68 41.08 9.55L41.08 9.55Q41.08 10.42 40.80 11.07Q40.53 11.73 40.08 12.17Q39.62 12.61 39.04 12.84Q38.46 13.06 37.86 13.06L37.86 13.06Q37.24 13.06 36.66 12.84Q36.08 12.61 35.63 12.17Q35.18 11.73 34.91 11.07Q34.64 10.42 34.64 9.55L34.64 9.55Q34.64 8.68 34.91 8.02Q35.18 7.35 35.64 6.90Q36.09 6.44 36.67 6.21Q37.24 5.98 37.86 5.98ZM47.10 11.47L47.10 7.50Q46.62 7.10 46.24 6.94Q45.86 6.78 45.51 6.78L45.51 6.78Q45.12 6.78 44.77 6.94Q44.42 7.11 44.16 7.46Q43.89 7.80 43.74 8.32Q43.58 8.83 43.58 9.55L43.58 9.55Q43.58 10.25 43.73 10.76Q43.88 11.27 44.13 11.61Q44.39 11.94 44.74 12.10Q45.09 12.26 45.51 12.26L45.51 12.26Q45.96 12.26 46.33 12.08Q46.70 11.89 47.10 11.47L47.10 11.47ZM48.29 12.17L49.42 12.35L49.42 12.85L47.24 12.99L47.14 12.05Q46.77 12.54 46.31 12.80Q45.85 13.06 45.18 13.06L45.18 13.06Q44.53 13.06 44.01 12.81Q43.48 12.56 43.11 12.10Q42.73 11.63 42.52 11.00Q42.32 10.36 42.32 9.59L42.32 9.59Q42.32 8.79 42.55 8.13Q42.77 7.46 43.17 6.99Q43.57 6.51 44.11 6.24Q44.66 5.98 45.30 5.98L45.30 5.98Q45.81 5.98 46.26 6.18Q46.70 6.38 47.14 6.89L47.14 6.89L47.14 3.91L45.95 3.77L45.95 3.28L48.15 2.65L48.34 2.76L48.29 4.75L48.29 12.17ZM51.58 8.86L54.12 8.86Q54.63 8.86 54.80 8.65Q54.96 8.44 54.96 8.13L54.96 8.13Q54.96 7.84 54.84 7.57Q54.73 7.29 54.52 7.08Q54.32 6.87 54.05 6.75Q53.77 6.62 53.45 6.62L53.45 6.62Q53.16 6.62 52.84 6.74Q52.53 6.86 52.27 7.13Q52.01 7.41 51.82 7.83Q51.63 8.26 51.58 8.86L51.58 8.86ZM56.03 9.46L51.55 9.46Q51.58 10.77 52.19 11.47Q52.81 12.17 53.82 12.17L53.82 12.17Q54.49 12.17 54.94 11.89Q55.38 11.61 55.76 11.16L55.76 11.16L56.10 11.42Q55.73 12.18 55.05 12.62Q54.38 13.06 53.41 13.06L53.41 13.06Q52.70 13.06 52.12 12.82Q51.55 12.59 51.14 12.13Q50.74 11.68 50.51 11.03Q50.29 10.39 50.29 9.59L50.29 9.59Q50.29 8.79 50.54 8.13Q50.79 7.46 51.23 6.99Q51.67 6.51 52.26 6.24Q52.85 5.98 53.51 5.98L53.51 5.98Q54.05 5.98 54.54 6.16Q55.02 6.34 55.37 6.69Q55.72 7.04 55.92 7.55Q56.13 8.05 56.13 8.68L56.13 8.68Q56.13 8.92 56.10 9.11Q56.07 9.31 56.03 9.46L56.03 9.46ZM62.97 9.14L65.74 9.14L64.37 5.10L62.97 9.14ZM68.14 12.15L69.19 12.28L69.19 12.85L65.38 12.85L65.38 12.28L66.75 12.11L65.97 9.80L62.75 9.80L61.96 12.10L63.32 12.28L63.32 12.85L60.10 12.85L60.10 12.28L61.29 12.10L64.29 3.49L65.13 3.49L68.14 12.15ZM75.11 11.07L75.46 11.26Q75.18 12.14 74.52 12.60Q73.85 13.06 72.84 13.06L72.84 13.06Q72.13 13.06 71.55 12.82Q70.97 12.57 70.55 12.11Q70.14 11.65 69.92 11.00Q69.71 10.35 69.71 9.55L69.71 9.55Q69.71 8.72 69.97 8.06Q70.24 7.39 70.69 6.93Q71.15 6.47 71.73 6.22Q72.31 5.98 72.94 5.98L72.94 5.98Q73.42 5.98 73.84 6.12Q74.27 6.26 74.60 6.50Q74.93 6.75 75.14 7.08Q75.35 7.41 75.42 7.80L75.42 7.80Q75.32 8.33 74.77 8.33L74.77 8.33Q74.42 8.33 74.26 8.14Q74.09 7.95 74.02 7.66L74.02 7.66L73.77 6.73Q73.57 6.66 73.37 6.64Q73.18 6.62 73.01 6.62L73.01 6.62Q72.10 6.62 71.52 7.34Q70.94 8.05 70.94 9.41L70.94 9.41Q70.94 10.75 71.56 11.46Q72.18 12.17 73.18 12.17L73.18 12.17Q73.78 12.17 74.28 11.89Q74.79 11.61 75.11 11.07L75.11 11.07ZM80.42 11.38L80.42 9.23Q80.05 9.32 79.71 9.44Q79.37 9.55 79.14 9.63L79.14 9.63Q78.68 9.81 78.41 10.00Q78.13 10.19 77.99 10.37Q77.85 10.56 77.81 10.74Q77.77 10.92 77.77 11.07L77.77 11.07Q77.77 11.35 77.85 11.52Q77.92 11.69 78.04 11.82L78.04 11.82Q78.36 12.14 78.89 12.14L78.89 12.14Q79.06 12.14 79.21 12.10Q79.37 12.07 79.53 11.98Q79.70 11.89 79.91 11.74Q80.12 11.59 80.42 11.38L80.42 11.38ZM82.66 11.94L82.94 12.25Q82.70 12.70 82.42 12.85Q82.14 12.99 81.80 12.99L81.80 12.99Q81.21 12.99 80.88 12.71Q80.54 12.42 80.44 11.94L80.44 11.94Q80.16 12.22 79.93 12.43Q79.69 12.64 79.45 12.78Q79.21 12.92 78.96 12.99Q78.71 13.06 78.40 13.06L78.40 13.06Q78.02 13.06 77.68 12.95Q77.34 12.84 77.08 12.61Q76.82 12.39 76.67 12.06Q76.52 11.73 76.52 11.30L76.52 11.30Q76.52 11.00 76.62 10.72Q76.72 10.44 76.97 10.19Q77.22 9.93 77.68 9.67Q78.13 9.41 78.85 9.16L78.85 9.16Q79.17 9.04 79.58 8.93Q80.00 8.81 80.42 8.69L80.42 8.69L80.42 8.32Q80.42 7.81 80.34 7.48Q80.26 7.15 80.11 6.96Q79.95 6.78 79.71 6.70Q79.46 6.62 79.11 6.62L79.11 6.62Q78.96 6.62 78.78 6.64Q78.61 6.65 78.40 6.69L78.40 6.69L78.12 7.67Q77.92 8.34 77.36 8.34L77.36 8.34Q77.07 8.34 76.90 8.18Q76.73 8.02 76.71 7.74L76.71 7.74Q76.90 6.94 77.63 6.46Q78.36 5.98 79.44 5.98L79.44 5.98Q80.54 5.98 81.07 6.54Q81.61 7.10 81.61 8.44L81.61 8.44L81.61 11.44Q81.61 12.26 82.07 12.26L82.07 12.26Q82.24 12.26 82.36 12.19Q82.49 12.11 82.59 12.03L82.59 12.03L82.66 11.94ZM88.42 11.47L88.42 7.50Q87.95 7.10 87.57 6.94Q87.19 6.78 86.84 6.78L86.84 6.78Q86.45 6.78 86.10 6.94Q85.75 7.11 85.48 7.46Q85.22 7.80 85.06 8.32Q84.91 8.83 84.91 9.55L84.91 9.55Q84.91 10.25 85.06 10.76Q85.20 11.27 85.46 11.61Q85.72 11.94 86.07 12.10Q86.42 12.26 86.84 12.26L86.84 12.26Q87.29 12.26 87.66 12.08Q88.03 11.89 88.42 11.47L88.42 11.47ZM89.61 12.17L90.75 12.35L90.75 12.85L88.56 12.99L88.47 12.05Q88.10 12.54 87.64 12.80Q87.18 13.06 86.51 13.06L86.51 13.06Q85.86 13.06 85.34 12.81Q84.81 12.56 84.43 12.10Q84.06 11.63 83.85 11.00Q83.65 10.36 83.65 9.59L83.65 9.59Q83.65 8.79 83.87 8.13Q84.10 7.46 84.50 6.99Q84.90 6.51 85.44 6.24Q85.99 5.98 86.63 5.98L86.63 5.98Q87.14 5.98 87.58 6.18Q88.03 6.38 88.47 6.89L88.47 6.89L88.47 3.91L87.28 3.77L87.28 3.28L89.47 2.65L89.67 2.76L89.61 4.75L89.61 12.17ZM92.90 8.86L95.45 8.86Q95.96 8.86 96.12 8.65Q96.29 8.44 96.29 8.13L96.29 8.13Q96.29 7.84 96.17 7.57Q96.05 7.29 95.85 7.08Q95.65 6.87 95.38 6.75Q95.10 6.62 94.78 6.62L94.78 6.62Q94.49 6.62 94.17 6.74Q93.86 6.86 93.60 7.13Q93.34 7.41 93.15 7.83Q92.96 8.26 92.90 8.86L92.90 8.86ZM97.36 9.46L92.88 9.46Q92.90 10.77 93.52 11.47Q94.14 12.17 95.14 12.17L95.14 12.17Q95.82 12.17 96.26 11.89Q96.71 11.61 97.09 11.16L97.09 11.16L97.43 11.42Q97.06 12.18 96.38 12.62Q95.70 13.06 94.74 13.06L94.74 13.06Q94.02 13.06 93.45 12.82Q92.88 12.59 92.47 12.13Q92.06 11.68 91.84 11.03Q91.62 10.39 91.62 9.59L91.62 9.59Q91.62 8.79 91.87 8.13Q92.12 7.46 92.56 6.99Q93.00 6.51 93.59 6.24Q94.18 5.98 94.84 5.98L94.84 5.98Q95.38 5.98 95.86 6.16Q96.35 6.34 96.70 6.69Q97.05 7.04 97.25 7.55Q97.45 8.05 97.45 8.68L97.45 8.68Q97.45 8.92 97.43 9.11Q97.40 9.31 97.36 9.46L97.36 9.46ZM109.34 12.15L110.32 12.35L110.32 12.85L107.07 12.85L107.07 12.35L108.11 12.15Q108.12 11.63 108.13 11.02Q108.14 10.40 108.14 9.91L108.14 9.91L108.14 8.65Q108.14 7.69 107.86 7.33Q107.58 6.97 106.97 6.97L106.97 6.97Q106.53 6.97 106.07 7.18Q105.62 7.39 105.08 7.88L105.08 7.88Q105.10 8.04 105.11 8.20Q105.11 8.37 105.11 8.57L105.11 8.57L105.11 9.91Q105.11 10.40 105.12 11.01Q105.13 11.62 105.14 12.15L105.14 12.15L106.12 12.35L106.12 12.85L102.87 12.85L102.87 12.35L103.91 12.15Q103.92 11.63 103.93 11.02Q103.94 10.40 103.94 9.91L103.94 9.91L103.94 8.68Q103.94 7.73 103.66 7.35Q103.39 6.97 102.79 6.97L102.79 6.97Q102.30 6.97 101.87 7.19Q101.44 7.41 100.91 7.85L100.91 7.85L100.91 9.91Q100.91 10.37 100.92 11.00Q100.93 11.62 100.94 12.15L100.94 12.15L101.92 12.35L101.92 12.85L98.67 12.85L98.67 12.35L99.71 12.15Q99.72 11.62 99.73 11.00Q99.74 10.39 99.74 9.91L99.74 9.91L99.74 9.20Q99.74 8.62 99.72 8.25Q99.71 7.87 99.69 7.45L99.69 7.45L98.59 7.32L98.59 6.83L100.53 5.98L100.74 6.12L100.86 7.25Q101.36 6.68 102.00 6.33Q102.65 5.98 103.32 5.98L103.32 5.98Q103.99 5.98 104.40 6.29Q104.80 6.59 104.97 7.29L104.97 7.29Q105.52 6.62 106.18 6.30Q106.83 5.98 107.52 5.98L107.52 5.98Q108.37 5.98 108.84 6.55Q109.31 7.13 109.31 8.43L109.31 8.43L109.31 9.91Q109.31 10.40 109.32 11.01Q109.33 11.62 109.34 12.15L109.34 12.15ZM117.29 6.23L117.29 6.80L116.51 6.97L114.41 12.80Q114.07 13.72 113.74 14.39Q113.41 15.06 113.07 15.49Q112.73 15.92 112.36 16.12Q111.99 16.32 111.55 16.32L111.55 16.32Q111.02 16.32 110.64 16.07Q110.26 15.81 110.26 15.39L110.26 15.39Q110.33 15.09 110.60 14.95Q110.87 14.80 111.19 14.80L111.19 14.80Q111.47 14.80 111.70 14.92Q111.93 15.04 112.25 15.34L112.25 15.34L112.29 15.39Q112.74 15.01 113.05 14.46Q113.36 13.92 113.62 13.23L113.62 13.23L111.10 6.93L110.29 6.80L110.29 6.23L113.67 6.23L113.67 6.82L112.45 6.96L114.18 11.62L115.77 6.97L114.56 6.80L114.56 6.23L117.29 6.23Z"></path></g><defs data-v-fde0c5aa=""><!----></defs><g data-v-fde0c5aa="" id="9aa1a0db-9ff0-4a55-b748-ea43c2ba12ce" stroke="none" fill="#DAA5DE" transform="matrix(0.4781015118906104,0,0,0.4781015118906104,126.0949248614226,93.37497027054279)"><path d="M50 6.272L12.13 28.137v43.728L50 93.728l37.87-21.863V28.137L50 6.272zm28.438 26.419L51 16.85V9.159L84.898 28.73l-6.46 3.961zM50 59.352l-7.21-4.162v-8.326L50 42.701l7.209 4.162v8.326L50 59.352zm-1-18.384l-6.67 3.851-7.902-4.675L49 31.731v9.237zm-8.21 5.264v8.625l-8 4.451v-17.81l8 4.734zm.708 10.521L49 61.083v9.238l-15.65-9.035 8.148-4.533zM51 61.083l7.502-4.331 8.148 4.534L51 70.321v-9.238zm8.209-6.228v-8.73l.314.513 7.687-4.714v17.383l-8.001-4.452zm-.73-9.921l.335.547L51 40.969v-9.237l14.94 8.625-7.461 4.577zM49 29.422l-16.547 9.553-8.779-5.194L49 19.159v10.263zM30.79 40.315v20.107l-8 4.451V35.582l8 4.733zm.523 22.105L49 72.63v8.212L24.071 66.449l7.242-4.029zM51 72.63l17.687-10.211 7.243 4.03L51 80.842V72.63zm18.21-12.209V40.698l8-4.907v29.081l-8-4.451zm-1.331-21.253L51 29.423V19.159l25.5 14.722-8.621 5.287zM49 16.849L21.699 32.612l-6.579-3.893L49 9.159v7.69zM20.79 34.398v31.588l-6.66 3.705V30.458l6.66 3.94zm1.244 33.185L49 83.15v7.691L15.251 71.357l6.783-3.774zM51 83.15l26.966-15.568 6.783 3.775L51 90.842V83.15zm28.21-17.165V34.564l6.66-4.085v39.212l-6.66-3.706z"></path></g><defs data-v-fde0c5aa=""><!----></defs><g data-v-fde0c5aa="" id="941a0623-acbe-459e-ba56-c9c949a5b80a" fill="#DAA5DE" transform="matrix(0.6883163021613081,0,0,0.6883163021613081,52.01817859669248,194.03813049792396)"><path d="M7.83 3.92L7.48 3.92L1.89 3.92L0.70 3.92L0.70 4.19C0.70 4.34 0.80 4.42 0.98 4.44L1.12 4.44C1.19 4.44 1.29 4.45 1.43 4.45C1.57 4.45 1.72 4.47 1.89 4.47L1.89 13.26C1.72 13.26 1.57 13.27 1.43 13.27C1.29 13.27 1.19 13.29 1.12 13.29L0.98 13.29C0.80 13.30 0.70 13.38 0.70 13.54L0.70 13.82L1.89 13.82L2.60 13.82L3.78 13.82L3.78 13.54C3.78 13.38 3.70 13.30 3.51 13.29L3.37 13.29C3.30 13.29 3.21 13.27 3.07 13.27C2.93 13.27 2.77 13.26 2.60 13.26L2.60 9.27L6.30 9.27L6.30 8.67L2.60 8.67L2.60 4.51L7.21 4.51C7.24 5.18 7.27 5.56 7.27 5.63C7.28 5.85 7.38 5.96 7.57 5.96L7.91 5.96L7.91 3.92ZM24.35 3.92L23.63 3.92L22.27 3.92L22.27 4.19C22.27 4.34 22.37 4.42 22.55 4.44L22.72 4.44C22.82 4.44 22.96 4.45 23.13 4.45C23.30 4.45 23.46 4.47 23.63 4.47L23.63 10.04C23.63 10.50 23.56 10.92 23.42 11.33C23.28 11.73 23.09 12.08 22.82 12.38C22.55 12.67 22.25 12.89 21.87 13.06C21.49 13.23 21.07 13.31 20.59 13.31C20.12 13.31 19.68 13.23 19.31 13.06C18.93 12.89 18.61 12.66 18.35 12.36C18.09 12.07 17.91 11.72 17.77 11.33C17.63 10.93 17.56 10.50 17.56 10.04L17.56 4.47C17.72 4.47 17.89 4.45 18.06 4.45C18.23 4.45 18.37 4.44 18.47 4.44L18.63 4.44C18.82 4.42 18.91 4.34 18.91 4.19L18.91 3.92L17.56 3.92L16.84 3.92L15.67 3.92L15.67 4.19C15.67 4.34 15.75 4.42 15.93 4.44L16.07 4.44C16.14 4.44 16.24 4.45 16.38 4.45C16.52 4.45 16.67 4.47 16.84 4.47L16.84 10.04C16.84 10.58 16.93 11.09 17.09 11.56C17.26 12.04 17.51 12.46 17.84 12.81C18.16 13.16 18.56 13.44 19.03 13.64C19.49 13.83 20.02 13.93 20.59 13.93C21.17 13.93 21.69 13.83 22.15 13.64C22.61 13.44 23.02 13.16 23.34 12.81C23.66 12.46 23.91 12.04 24.08 11.56C24.25 11.09 24.35 10.58 24.35 10.04L24.35 4.47C24.51 4.47 24.65 4.45 24.79 4.45C24.93 4.45 25.05 4.44 25.12 4.44L25.24 4.44C25.42 4.42 25.52 4.34 25.52 4.19L25.52 3.92ZM41.06 3.92L40.87 3.92L33.57 3.92L33.36 3.92L33.26 3.92L33.26 5.96L33.61 5.96C33.81 5.96 33.89 5.85 33.91 5.63C33.91 5.53 33.94 5.17 33.96 4.52L36.86 4.52L36.86 13.26C36.69 13.26 36.55 13.27 36.41 13.27C36.27 13.27 36.16 13.29 36.09 13.29L35.97 13.29C35.78 13.30 35.69 13.38 35.69 13.54L35.69 13.82L36.86 13.82L37.58 13.82L38.77 13.82L38.77 13.54C38.77 13.38 38.67 13.30 38.49 13.29L38.35 13.29C38.28 13.29 38.18 13.27 38.04 13.27C37.90 13.27 37.74 13.26 37.58 13.26L37.58 4.52L40.46 4.52C40.50 5.24 40.52 5.60 40.52 5.63C40.53 5.85 40.63 5.96 40.82 5.96L41.16 5.96L41.16 3.92ZM57.58 3.92L56.87 3.92L55.51 3.92L55.51 4.19C55.51 4.34 55.61 4.42 55.79 4.44L55.96 4.44C56.06 4.44 56.20 4.45 56.36 4.45C56.53 4.45 56.70 4.47 56.87 4.47L56.87 10.04C56.87 10.50 56.80 10.92 56.66 11.33C56.52 11.73 56.32 12.08 56.06 12.38C55.79 12.67 55.48 12.89 55.10 13.06C54.73 13.23 54.31 13.31 53.83 13.31C53.35 13.31 52.92 13.23 52.54 13.06C52.16 12.89 51.84 12.66 51.59 12.36C51.32 12.07 51.14 11.72 51.00 11.33C50.86 10.93 50.79 10.50 50.79 10.04L50.79 4.47C50.96 4.47 51.13 4.45 51.30 4.45C51.46 4.45 51.60 4.44 51.70 4.44L51.87 4.44C52.05 4.42 52.15 4.34 52.15 4.19L52.15 3.92L50.79 3.92L50.08 3.92L48.90 3.92L48.90 4.19C48.90 4.34 48.99 4.42 49.17 4.44L49.31 4.44C49.38 4.44 49.48 4.45 49.62 4.45C49.76 4.45 49.91 4.47 50.08 4.47L50.08 10.04C50.08 10.58 50.16 11.09 50.33 11.56C50.50 12.04 50.75 12.46 51.07 12.81C51.39 13.16 51.80 13.44 52.26 13.64C52.72 13.83 53.26 13.93 53.83 13.93C54.40 13.93 54.92 13.83 55.38 13.64C55.85 13.44 56.25 13.16 56.57 12.81C56.90 12.46 57.15 12.04 57.32 11.56C57.48 11.09 57.58 10.58 57.58 10.04L57.58 4.47C57.75 4.47 57.89 4.45 58.03 4.45C58.17 4.45 58.28 4.44 58.35 4.44L58.48 4.44C58.66 4.42 58.76 4.34 58.76 4.19L58.76 3.92ZM74.77 13.29L74.68 13.29L74.49 13.29C74.41 13.29 74.33 13.27 74.24 13.27L71.27 9.53C71.19 9.42 71.08 9.32 70.97 9.25C71.40 9.21 71.79 9.11 72.14 8.96C72.49 8.81 72.77 8.61 73.02 8.37C73.26 8.13 73.46 7.85 73.58 7.55C73.71 7.24 73.78 6.89 73.78 6.51C73.78 5.66 73.50 5.03 72.94 4.58C72.38 4.14 71.53 3.92 70.38 3.92L67.97 3.92L66.79 3.92L66.79 4.19C66.79 4.34 66.88 4.42 67.06 4.44L67.20 4.44C67.27 4.44 67.37 4.45 67.51 4.45C67.65 4.45 67.80 4.47 67.97 4.47L67.97 13.26C67.80 13.26 67.65 13.27 67.51 13.27C67.37 13.27 67.27 13.29 67.20 13.29L67.06 13.29C66.88 13.30 66.78 13.38 66.78 13.54L66.78 13.82L67.97 13.82L68.68 13.82L69.86 13.82L69.86 13.54C69.86 13.38 69.76 13.30 69.58 13.29L69.44 13.29C69.37 13.29 69.27 13.27 69.13 13.27C68.99 13.27 68.85 13.26 68.68 13.26L68.68 9.34L69.86 9.34C70.06 9.34 70.20 9.35 70.28 9.39C70.36 9.44 70.45 9.52 70.53 9.62L73.71 13.64C73.77 13.71 73.81 13.75 73.86 13.78C73.92 13.80 73.99 13.82 74.06 13.82L74.13 13.82L74.68 13.82L75.04 13.82L75.04 13.54C75.04 13.38 74.96 13.30 74.77 13.29ZM70.28 8.81L68.68 8.81L68.68 4.48L70.38 4.48C71.26 4.48 71.93 4.66 72.39 5.00C72.86 5.33 73.08 5.87 73.08 6.57C73.08 6.92 73.02 7.21 72.90 7.49C72.77 7.77 72.58 7.99 72.34 8.19C72.10 8.39 71.81 8.55 71.46 8.65C71.11 8.75 70.71 8.81 70.28 8.81ZM84.43 3.92L83.24 3.92L83.24 4.19C83.24 4.34 83.34 4.42 83.52 4.44L83.66 4.44C83.73 4.44 83.83 4.45 83.97 4.45C84.11 4.45 84.27 4.47 84.43 4.47L84.43 13.26C84.27 13.26 84.11 13.27 83.97 13.27C83.83 13.27 83.73 13.29 83.66 13.29L83.52 13.29C83.34 13.30 83.26 13.38 83.26 13.54L83.26 13.82L84.43 13.82L90.37 13.82L90.37 13.22L90.37 11.76L90.02 11.76C89.82 11.76 89.74 11.89 89.73 12.11C89.73 12.14 89.71 12.19 89.71 12.29C89.71 12.39 89.71 12.53 89.70 12.74C89.68 12.95 89.67 13.09 89.67 13.22L85.15 13.22L85.15 9.09L89.10 9.09L89.10 8.51L85.15 8.51L85.15 4.51L89.67 4.51C89.70 5.12 89.73 5.50 89.73 5.63C89.74 5.85 89.82 5.96 90.02 5.96L90.37 5.96L90.37 4.51L90.37 3.92ZM99.23 9.38L99.23 9.95L102.48 9.95L102.48 9.38ZM119.13 13.29L119.03 13.29L118.85 13.29C118.76 13.29 118.68 13.27 118.59 13.27L115.63 9.53C115.54 9.42 115.43 9.32 115.32 9.25C115.75 9.21 116.14 9.11 116.49 8.96C116.84 8.81 117.12 8.61 117.38 8.37C117.61 8.13 117.81 7.85 117.94 7.55C118.06 7.24 118.13 6.89 118.13 6.51C118.13 5.66 117.85 5.03 117.29 4.58C116.73 4.14 115.88 3.92 114.73 3.92L112.32 3.92L111.15 3.92L111.15 4.19C111.15 4.34 111.23 4.42 111.41 4.44L111.55 4.44C111.62 4.44 111.72 4.45 111.86 4.45C112.00 4.45 112.15 4.47 112.32 4.47L112.32 13.26C112.15 13.26 112.00 13.27 111.86 13.27C111.72 13.27 111.62 13.29 111.55 13.29L111.41 13.29C111.23 13.30 111.13 13.38 111.13 13.54L111.13 13.82L112.32 13.82L113.04 13.82L114.21 13.82L114.21 13.54C114.21 13.38 114.11 13.30 113.93 13.29L113.79 13.29C113.72 13.29 113.62 13.27 113.48 13.27C113.34 13.27 113.20 13.26 113.04 13.26L113.04 9.34L114.21 9.34C114.41 9.34 114.55 9.35 114.63 9.39C114.72 9.44 114.80 9.52 114.88 9.62L118.06 13.64C118.12 13.71 118.16 13.75 118.22 13.78C118.27 13.80 118.34 13.82 118.41 13.82L118.48 13.82L119.03 13.82L119.39 13.82L119.39 13.54C119.39 13.38 119.31 13.30 119.13 13.29ZM114.63 8.81L113.04 8.81L113.04 4.48L114.73 4.48C115.61 4.48 116.28 4.66 116.75 5.00C117.21 5.33 117.43 5.87 117.43 6.57C117.43 6.92 117.38 7.21 117.25 7.49C117.12 7.77 116.93 7.99 116.69 8.19C116.45 8.39 116.16 8.55 115.81 8.65C115.46 8.75 115.07 8.81 114.63 8.81ZM128.79 3.92L127.60 3.92L127.60 4.19C127.60 4.34 127.69 4.42 127.88 4.44L128.02 4.44C128.09 4.44 128.18 4.45 128.32 4.45C128.46 4.45 128.62 4.47 128.79 4.47L128.79 13.26C128.62 13.26 128.46 13.27 128.32 13.27C128.18 13.27 128.09 13.29 128.02 13.29L127.88 13.29C127.69 13.30 127.61 13.38 127.61 13.54L127.61 13.82L128.79 13.82L134.72 13.82L134.72 13.22L134.72 11.76L134.37 11.76C134.18 11.76 134.09 11.89 134.08 12.11C134.08 12.14 134.06 12.19 134.06 12.29C134.06 12.39 134.06 12.53 134.05 12.74C134.04 12.95 134.02 13.09 134.02 13.22L129.50 13.22L129.50 9.09L133.45 9.09L133.45 8.51L129.50 8.51L129.50 4.51L134.02 4.51C134.05 5.12 134.08 5.50 134.08 5.63C134.09 5.85 134.18 5.96 134.37 5.96L134.72 5.96L134.72 4.51L134.72 3.92ZM152.60 13.22L152.14 13.17L148.36 3.91L147.64 3.91L143.85 13.17L143.40 13.22C143.22 13.23 143.14 13.33 143.14 13.50L143.14 13.82L143.58 13.82L143.88 13.82L144.13 13.82L144.23 13.82L145.54 13.82L145.54 13.50C145.54 13.31 145.43 13.23 145.22 13.22C145.21 13.22 145.18 13.20 145.14 13.20C145.10 13.20 145.04 13.19 144.94 13.19C144.84 13.19 144.72 13.19 144.58 13.17L145.56 10.75L145.63 10.57L150.36 10.57L150.43 10.75L151.41 13.17C151.27 13.19 151.16 13.19 151.06 13.19C150.96 13.19 150.89 13.20 150.85 13.20C150.81 13.20 150.78 13.22 150.77 13.22C150.56 13.23 150.44 13.31 150.44 13.50L150.44 13.82L151.76 13.82L151.86 13.82L152.12 13.82L152.40 13.82L152.87 13.82L152.87 13.50C152.87 13.33 152.78 13.23 152.60 13.22ZM147.80 5.22C147.83 5.14 147.87 5.04 147.90 4.94C147.92 4.84 147.97 4.75 147.99 4.63C148.02 4.75 148.06 4.84 148.09 4.94C148.12 5.04 148.16 5.12 148.19 5.21L150.15 10.04L145.85 10.04ZM170.10 6.80C169.88 6.19 169.55 5.68 169.13 5.25C168.71 4.82 168.22 4.48 167.65 4.26C167.08 4.03 166.42 3.92 165.72 3.92L162.29 3.92L161.10 3.92L161.10 4.19C161.10 4.34 161.20 4.42 161.38 4.44L161.52 4.44C161.59 4.44 161.69 4.45 161.83 4.45C161.97 4.45 162.12 4.47 162.29 4.47L162.29 13.26C162.12 13.26 161.97 13.27 161.83 13.27C161.69 13.27 161.59 13.29 161.52 13.29L161.38 13.29C161.20 13.30 161.10 13.38 161.10 13.54L161.10 13.82L162.29 13.82L165.72 13.82C166.42 13.82 167.08 13.71 167.65 13.48C168.22 13.26 168.71 12.92 169.13 12.49C169.55 12.05 169.88 11.54 170.10 10.92C170.32 10.30 170.45 9.63 170.45 8.86C170.45 8.11 170.32 7.42 170.10 6.80ZM169.41 10.72C169.22 11.27 168.97 11.72 168.62 12.10C168.27 12.47 167.85 12.75 167.36 12.95C166.87 13.15 166.32 13.24 165.72 13.24L163.00 13.24L163.00 4.49L165.72 4.49C166.32 4.49 166.87 4.59 167.36 4.79C167.85 4.98 168.27 5.26 168.62 5.64C168.97 6.02 169.22 6.47 169.41 7.01C169.61 7.56 169.71 8.18 169.71 8.86C169.71 9.56 169.61 10.18 169.41 10.72ZM186.24 3.92L186.17 3.92L185.61 3.92L185.50 3.92L184.10 3.92L184.10 4.19C184.10 4.34 184.20 4.42 184.38 4.44L184.49 4.44C184.55 4.44 184.62 4.45 184.73 4.45C184.84 4.45 184.97 4.47 185.11 4.47L182.52 8.64C182.45 8.75 182.39 8.85 182.35 8.95C182.31 9.04 182.27 9.16 182.22 9.25C182.18 9.16 182.14 9.04 182.10 8.95C182.06 8.85 182.00 8.75 181.93 8.64L179.33 4.47C179.47 4.47 179.59 4.45 179.70 4.45C179.82 4.45 179.90 4.44 179.96 4.44L180.05 4.44C180.24 4.42 180.33 4.34 180.33 4.19L180.33 3.92L178.93 3.92L178.82 3.92L178.26 3.92L178.19 3.92L177.74 3.92L177.74 4.19C177.74 4.34 177.84 4.42 178.02 4.44C178.26 4.45 178.44 4.47 178.54 4.47L181.86 9.73L181.86 13.26C181.69 13.26 181.54 13.27 181.40 13.27C181.26 13.27 181.16 13.29 181.09 13.29L180.96 13.29C180.78 13.30 180.68 13.38 180.68 13.54L180.68 13.82L181.86 13.82L182.57 13.82L183.75 13.82L183.75 13.54C183.75 13.38 183.67 13.30 183.48 13.29L183.34 13.29C183.27 13.29 183.18 13.27 183.04 13.27C182.90 13.27 182.74 13.26 182.57 13.26L182.57 9.73L185.89 4.47C186.00 4.47 186.17 4.45 186.41 4.44C186.59 4.42 186.69 4.34 186.69 4.19L186.69 3.92ZM210.83 9.91C210.69 9.65 210.49 9.39 210.25 9.21C210.01 9.03 209.76 8.88 209.47 8.75C209.17 8.62 208.85 8.51 208.54 8.41C208.24 8.32 207.93 8.20 207.63 8.11C207.34 7.99 207.07 7.87 206.84 7.71C206.60 7.56 206.42 7.38 206.28 7.15C206.14 6.93 206.05 6.65 206.05 6.31C206.05 6.06 206.11 5.82 206.21 5.59C206.30 5.35 206.44 5.15 206.63 4.97C206.81 4.79 207.03 4.65 207.31 4.55C207.59 4.45 207.90 4.40 208.26 4.40C208.94 4.40 209.55 4.51 210.11 4.75C210.15 5.54 210.18 5.99 210.18 6.06C210.20 6.29 210.28 6.41 210.48 6.41L210.81 6.41L210.81 4.38C209.93 4.00 209.09 3.81 208.26 3.81C207.80 3.81 207.40 3.88 207.03 4.02C206.67 4.16 206.37 4.34 206.14 4.58C205.90 4.82 205.70 5.08 205.58 5.39C205.45 5.70 205.39 6.02 205.39 6.36C205.39 6.78 205.46 7.14 205.60 7.42C205.74 7.70 205.94 7.92 206.18 8.12C206.42 8.32 206.67 8.46 206.96 8.58C207.26 8.71 207.58 8.82 207.89 8.92C208.19 9.02 208.49 9.11 208.80 9.21C209.09 9.31 209.36 9.45 209.59 9.60C209.83 9.76 210.01 9.94 210.15 10.16C210.29 10.39 210.36 10.68 210.36 11.03C210.36 11.35 210.31 11.66 210.20 11.94C210.08 12.22 209.93 12.46 209.72 12.67C209.51 12.88 209.24 13.05 208.94 13.16C208.63 13.29 208.28 13.33 207.89 13.33C207.10 13.33 206.44 13.20 205.91 12.95C205.90 12.75 205.90 12.54 205.88 12.32C205.87 12.10 205.87 11.91 205.86 11.76C205.84 11.61 205.84 11.52 205.84 11.51C205.83 11.28 205.73 11.17 205.53 11.17L205.20 11.17L205.20 13.02L205.20 13.20L205.20 13.38C206.05 13.75 206.93 13.93 207.86 13.93C208.36 13.93 208.81 13.85 209.20 13.69C209.59 13.54 209.93 13.31 210.20 13.05C210.46 12.78 210.69 12.46 210.83 12.10C210.97 11.73 211.04 11.34 211.04 10.92C211.04 10.51 210.97 10.18 210.83 9.91ZM227.79 13.29L227.71 13.29L227.53 13.29C227.44 13.29 227.35 13.27 227.25 13.27L223.22 9.06C223.13 8.96 223.06 8.89 222.98 8.83C222.89 8.78 222.81 8.74 222.71 8.71C222.80 8.68 222.87 8.64 222.94 8.58C223.01 8.53 223.09 8.46 223.17 8.36L226.97 4.45L227.23 4.45C227.32 4.45 227.37 4.44 227.42 4.44L227.50 4.44C227.68 4.42 227.78 4.34 227.78 4.19L227.78 3.91L226.80 3.91L226.67 3.91L224.87 3.91L224.87 4.19C224.87 4.34 224.97 4.42 225.15 4.44L225.32 4.44C225.41 4.44 225.54 4.45 225.71 4.45L226.16 4.45L222.49 8.22C222.43 8.27 222.38 8.33 222.33 8.36C222.29 8.39 222.24 8.40 222.18 8.43C222.12 8.44 222.08 8.47 222.01 8.47C221.94 8.48 221.86 8.48 221.77 8.48L221.19 8.48L221.19 4.45C221.35 4.45 221.51 4.44 221.65 4.44C221.79 4.44 221.89 4.42 221.96 4.42L222.10 4.42C222.28 4.41 222.36 4.33 222.36 4.17L222.36 3.91L221.19 3.91L220.47 3.91L219.30 3.91L219.30 4.17C219.30 4.33 219.39 4.41 219.58 4.42L219.70 4.42C219.77 4.42 219.88 4.44 220.02 4.44C220.16 4.44 220.30 4.45 220.47 4.45L220.47 13.26C220.30 13.26 220.16 13.27 220.02 13.27C219.88 13.27 219.77 13.29 219.70 13.29L219.58 13.29C219.39 13.30 219.30 13.38 219.30 13.54L219.30 13.82L220.47 13.82L221.19 13.82L222.36 13.82L222.36 13.54C222.36 13.38 222.28 13.30 222.10 13.29L221.96 13.29C221.89 13.29 221.79 13.27 221.65 13.27C221.51 13.27 221.35 13.26 221.19 13.26L221.19 9.04L221.83 9.04C221.94 9.04 222.04 9.04 222.11 9.06C222.18 9.07 222.24 9.09 222.29 9.11C222.35 9.14 222.40 9.17 222.45 9.21C222.49 9.25 222.53 9.28 222.59 9.34L226.44 13.27C226.30 13.27 226.13 13.29 225.96 13.29L225.55 13.29L225.37 13.29C225.19 13.30 225.09 13.38 225.09 13.54L225.09 13.82L226.97 13.82L227.02 13.82L227.19 13.82L227.78 13.82L228.07 13.82L228.07 13.54C228.07 13.38 227.98 13.30 227.79 13.29ZM239.16 4.44C239.34 4.42 239.43 4.34 239.43 4.19L239.43 3.91L238.25 3.91L237.54 3.91L236.35 3.91L236.35 4.19C236.35 4.34 236.45 4.42 236.63 4.44L236.77 4.44C236.84 4.44 236.94 4.45 237.08 4.45C237.22 4.45 237.37 4.47 237.54 4.47L237.54 13.26C237.37 13.26 237.22 13.27 237.08 13.27C236.94 13.27 236.84 13.29 236.77 13.29L236.63 13.29C236.45 13.30 236.35 13.38 236.35 13.54L236.35 13.82L237.54 13.82L238.25 13.82L239.43 13.82L239.43 13.54C239.43 13.38 239.34 13.30 239.16 13.29L239.02 13.29C238.95 13.29 238.85 13.27 238.71 13.27C238.57 13.27 238.42 13.26 238.25 13.26L238.25 4.47C238.42 4.47 238.57 4.45 238.71 4.45C238.85 4.45 238.95 4.44 239.02 4.44ZM254.14 11.97C253.95 11.97 253.86 12.08 253.85 12.31C253.85 12.32 253.85 12.38 253.83 12.43C253.82 12.49 253.82 12.59 253.81 12.71C253.79 12.84 253.78 13.01 253.76 13.20L249.68 13.20L249.68 4.47C249.84 4.47 249.98 4.45 250.12 4.45C250.26 4.45 250.38 4.44 250.45 4.44L250.57 4.44C250.75 4.42 250.85 4.34 250.85 4.19L250.85 3.92L249.68 3.92L248.96 3.92L247.77 3.92L247.77 4.19C247.77 4.34 247.87 4.42 248.05 4.44L248.19 4.44C248.26 4.44 248.36 4.45 248.50 4.45C248.64 4.45 248.79 4.47 248.96 4.47L248.96 13.26C248.79 13.26 248.64 13.27 248.50 13.27C248.36 13.27 248.26 13.29 248.19 13.29L248.05 13.29C247.87 13.30 247.77 13.38 247.77 13.54L247.77 13.82L248.96 13.82L254.24 13.82L254.37 13.82L254.49 13.82L254.49 13.55L254.49 12.99L254.49 11.97L254.21 11.97ZM269.29 11.97C269.09 11.97 269.01 12.08 269.00 12.31C269.00 12.32 269.00 12.38 268.98 12.43C268.97 12.49 268.97 12.59 268.95 12.71C268.94 12.84 268.93 13.01 268.91 13.20L264.82 13.20L264.82 4.47C264.99 4.47 265.13 4.45 265.27 4.45C265.41 4.45 265.52 4.44 265.59 4.44L265.72 4.44C265.90 4.42 266 4.34 266 4.19L266 3.92L264.82 3.92L264.11 3.92L262.92 3.92L262.92 4.19C262.92 4.34 263.02 4.42 263.20 4.44L263.34 4.44C263.41 4.44 263.51 4.45 263.65 4.45C263.79 4.45 263.94 4.47 264.11 4.47L264.11 13.26C263.94 13.26 263.79 13.27 263.65 13.27C263.51 13.27 263.41 13.29 263.34 13.29L263.20 13.29C263.02 13.30 262.92 13.38 262.92 13.54L262.92 13.82L264.11 13.82L269.39 13.82L269.51 13.82L269.64 13.82L269.64 13.55L269.64 12.99L269.64 11.97L269.36 11.97ZM283.79 9.91C283.65 9.65 283.46 9.39 283.22 9.21C282.98 9.03 282.73 8.88 282.44 8.75C282.14 8.62 281.82 8.51 281.51 8.41C281.20 8.32 280.90 8.20 280.60 8.11C280.31 7.99 280.04 7.87 279.80 7.71C279.57 7.56 279.38 7.38 279.24 7.15C279.10 6.93 279.02 6.65 279.02 6.31C279.02 6.06 279.08 5.82 279.17 5.59C279.27 5.35 279.41 5.15 279.59 4.97C279.78 4.79 280.00 4.65 280.28 4.55C280.56 4.45 280.87 4.40 281.23 4.40C281.90 4.40 282.52 4.51 283.08 4.75C283.12 5.54 283.15 5.99 283.15 6.06C283.16 6.29 283.25 6.41 283.44 6.41L283.78 6.41L283.78 4.38C282.90 4.00 282.06 3.81 281.23 3.81C280.77 3.81 280.36 3.88 280.00 4.02C279.64 4.16 279.34 4.34 279.10 4.58C278.87 4.82 278.67 5.08 278.54 5.39C278.42 5.70 278.36 6.02 278.36 6.36C278.36 6.78 278.43 7.14 278.57 7.42C278.71 7.70 278.91 7.92 279.15 8.12C279.38 8.32 279.64 8.46 279.93 8.58C280.22 8.71 280.55 8.82 280.85 8.92C281.16 9.02 281.46 9.11 281.76 9.21C282.06 9.31 282.32 9.45 282.56 9.60C282.80 9.76 282.98 9.94 283.12 10.16C283.26 10.39 283.33 10.68 283.33 11.03C283.33 11.35 283.28 11.66 283.16 11.94C283.05 12.22 282.90 12.46 282.69 12.67C282.48 12.88 282.21 13.05 281.90 13.16C281.60 13.29 281.25 13.33 280.85 13.33C280.07 13.33 279.41 13.20 278.88 12.95C278.87 12.75 278.87 12.54 278.85 12.32C278.84 12.10 278.84 11.91 278.82 11.76C278.81 11.61 278.81 11.52 278.81 11.51C278.80 11.28 278.70 11.17 278.50 11.17L278.17 11.17L278.17 13.02L278.17 13.20L278.17 13.38C279.02 13.75 279.90 13.93 280.83 13.93C281.33 13.93 281.78 13.85 282.17 13.69C282.56 13.54 282.90 13.31 283.16 13.05C283.43 12.78 283.65 12.46 283.79 12.10C283.93 11.73 284.00 11.34 284.00 10.92C284.00 10.51 283.93 10.18 283.79 9.91Z"></path></g></svg>